# xmcd
#
# Track frame offsets:
#	150
#	12611
#	25059
#	41617
#	53927
#	64570
#	74566
#	86881
#	100203
#	109664
#	123259
#	133449
#	144147
#	153989
#	164663
#	175281
#	184270
#	193725
#	205330
#	218126
#
# Disc length: 3070 seconds
#
# Revision: 1
# Processed by: cddbd v1.5.2PL0 Copyright (c) Steve Scherf et al.
# Submitted via: audiograbber 1.83.01
#
DISCID=2e0bfc14
DTITLE=Various Artist - The Roots of Soul CD01
DYEAR=1900
DGENRE=Soul
TTITLE0=James Brown - Please, please, please
TTITLE1=Jackie Wilson - Reet petite
TTITLE2=Ray Charles - Georgia on my mind
TTITLE3=Sam Cooke - You send me
TTITLE4=Bobby Day - Over and over
TTITLE5=Hank Ballard and The Midnighters (The Royales) - Get it
TTITLE6=Ivory Joe Hunter - Empty arms
TTITLE7=LaVern Baker - Play it fair
TTITLE8=JImmy Jones - Good timin'
TTITLE9=James Brown - Why do you do me
TTITLE10=Jessie Hill - Ooh poo pa doo
TTITLE11=Clyde McPhatter - Just to hold my hand
TTITLE12=Don and Dewey - I'm leavin' it all up to you
TTITLE13=Etta James - Good rockin' daddy
TTITLE14=Roy Brown - School bell rock
TTITLE15=Ray Charles - Carry me back to old Virginny
TTITLE16=Rosco Gordon - Just a little bit
TTITLE17=Barrett Strong - Money
TTITLE18=James Brown - I don't know
TTITLE19=solomon Burke - Just out of reach
EXTD=
EXTT0=
EXTT1=
EXTT2=
EXTT3=
EXTT4=
EXTT5=
EXTT6=
EXTT7=
EXTT8=
EXTT9=
EXTT10=
EXTT11=
EXTT12=
EXTT13=
EXTT14=
EXTT15=
EXTT16=
EXTT17=
EXTT18=
EXTT19=
PLAYORDER=
